<?xml version="1.0" encoding="utf-8"?>
<!-- Generator: Adobe Illustrator 19.2.1, SVG Export Plug-In . SVG Version: 6.00 Build 0)  -->
<svg version="1.1" id="Layer_1" xmlns="http://www.w3.org/2000/svg" xmlns:xlink="http://www.w3.org/1999/xlink" x="0px" y="0px"
	 viewBox="0 0 200 200" style="enable-background:new 0 0 200 200;" xml:space="preserve">
<style type="text/css">
	.st0{font-family:'Raleway-Regular';}
	.st1{font-size:37.0773px;}
</style>
<path d="M88.7,48.6c0.3,1.9,0.6,3.6,0.8,5.5c-22.5,3.5-44.8,6.9-67.3,10.4c-0.3-1.7-0.5-3.5-0.8-5.5C43.7,55.5,66.1,52,88.7,48.6z"
	/>
<path d="M85,46.2c-1.1,0.1-2.1,0.1-3.3,0.2c-1.4-9.8-6.1-17.4-15-22c-5.9-3.1-12.2-3.7-18.7-2.3c-13.9,3-20.9,13.9-20.8,32.7
	c-0.9,0.3-1.9,0.5-3.3,0.9c-2.2-11.3,0.4-21,8.4-28.9c9.5-9.3,20.9-11.6,33.4-6.9C76.8,24.1,84.7,34.9,85,46.2z"/>
<text transform="matrix(1 0 0 1 15.123 187.9238)" class="st0 st1">BUCKETS</text>
<path d="M111.7,48.6c-0.3,1.9-0.6,3.6-0.8,5.5c22.5,3.5,44.8,6.9,67.3,10.4c0.3-1.7,0.5-3.5,0.8-5.5C156.7,55.5,134.3,52,111.7,48.6
	z"/>
<path d="M115.4,46.2c1.1,0.1,2.1,0.1,3.3,0.2c1.4-9.8,6.1-17.4,15-22c5.9-3.1,12.2-3.7,18.7-2.3c13.9,3,20.9,13.9,20.8,32.7
	c0.9,0.3,1.9,0.5,3.3,0.9c2.2-11.3-0.4-21-8.4-28.9c-9.5-9.3-20.9-11.6-33.4-6.9C123.6,24.1,115.7,34.9,115.4,46.2z"/>
<path d="M143.8,72.6c-2.2,9.8-4.3,19.3-6.4,28.8c-2.9,12.9-5.8,25.7-8.5,38.6c-0.5,2.5-1.5,3.2-4,3.2c-16.7-0.1-33.3-0.1-50,0
	c-2.4,0-3.5-0.6-4-3.1c-4.7-21.6-9.5-43.1-14.3-64.7c-0.2-0.8-0.2-1.7-0.2-2.8C85.5,72.6,114.4,72.6,143.8,72.6z"/>
<path d="M145.8,61.6c0,2.6,0,4.9,0,7.4c-30.5,0-60.9,0-91.6,0c0-2.4,0-4.7,0-7.4C84.6,61.6,115,61.6,145.8,61.6z"/>
<path d="M141.4,57.8c-1.5-0.1-2.8-0.2-4.5-0.4c0.1-13.3-4.5-24.4-15.4-32.3c-7.2-5.3-15.4-7.4-24.3-6.9C78,19.4,66.5,32.4,62.8,57.3
	c-1.3,0.1-2.7,0.3-4.5,0.5C57.7,42.4,63.1,30,75.3,21.2c14.5-10.4,30.1-11.1,45.7-2.3C135,26.7,143.2,42.7,141.4,57.8z"/>
<path d="M55.5,69.1h32.2c0.3-4,0.5-8.1,0.8-12.2c-21.6,3.3-42.9,6.6-64.3,9.9c0.2,0.8,0.3,1.4,0.5,2c6,15.3,12,30.6,17.9,45.9
	c0.7,1.8,1.5,2.1,3.3,1.9c12.2-2,24.5-3.8,36.7-5.7c1.8-0.3,2.5-0.9,2.6-2.8c0.5-9.8,1.2-19.6,1.9-29.4c0.1-2,0.3-4,0.4-6.1H56.4
	L55.5,69.1z"/>
<path d="M111.9,56.9c0.3,4.1,0.5,8.2,0.8,12.2h32.2l-0.9,3.6h-31.1c0.1,2,0.3,4.1,0.4,6.1c0.6,9.8,1.4,19.6,1.9,29.4
	c0.1,1.9,0.8,2.5,2.6,2.8c12.3,1.8,24.5,3.7,36.7,5.7c1.8,0.3,2.6,0,3.3-1.9c5.9-15.3,11.9-30.6,17.9-45.9c0.2-0.6,0.3-1.2,0.5-2
	C154.8,63.5,133.5,60.2,111.9,56.9z"/>
</svg>
