<?xml version="1.0" encoding="utf-8"?>
<!-- Generator: Adobe Illustrator 19.2.1, SVG Export Plug-In . SVG Version: 6.00 Build 0)  -->
<svg version="1.1" id="Layer_1" xmlns="http://www.w3.org/2000/svg" xmlns:xlink="http://www.w3.org/1999/xlink" x="0px" y="0px"
	 viewBox="0 0 106.1 111" style="enable-background:new 0 0 106.1 111;" xml:space="preserve">
<g>
	<g>
		<path d="M81,111c-22.9,0-45.9,0-68.8,0c-1.2-0.6-2-1.5-2.1-2.9c-0.8-8.5-1.6-16.9-2.4-25.4c-0.8-8.3-1.6-16.6-2.4-24.9
			C4.4,48.9,3.5,40,2.7,31.1C1.8,22,1,13,0,3.9C-0.1,2.1,0.2,0.8,2,0c30.3,0,60.5,0,90.8,0c1.7,0.8,2.2,2.1,2,3.9
			c-0.7,5.8-1.3,11.7-1.9,17.5c0,0.4,0.2,0.9,0.5,1.2c0.8,0.8,1.7,1.5,2.5,2.3c4,3.9,7.7,7.9,9.6,13.3c1.1,3.1,1.2,6.1-0.4,9
			c-1.2,2.2-2.9,3.9-5.5,4.5c-3.2,0.7-6.3,0.1-9.3-0.7c-6.5-1.9-12.5-5.1-18.2-8.7c-4.7-2.9-9.3-6-13.7-9.2c-4.2-3-8.2-6.2-12.2-9.3
			c-1-0.8-2-1.9-3.5-1.5c-0.2,0.1-0.4,0-0.6-0.1c-1.9-0.5-3-2.3-2.7-4.2c0.3-2,2-3.3,3.9-3.3c1.9,0.1,3.5,1.6,3.6,3.6
			c0,0.5,0.2,0.8,0.6,1.2c2.6,2,5.2,4,7.7,6c6.4,4.9,13,9.6,19.9,13.7c5.2,3.1,10.5,6.1,16.3,7.8c1.9,0.6,3.9,0.8,5.8,0.9
			c2.9,0.2,4.6-1.9,5-4.2c0.5-2.5-0.4-4.8-1.6-6.9c-1.5-2.7-3.5-5-5.6-7.3c-0.8-0.8-1.6-1.6-2.6-2.5c-0.6,5.3-1.2,10.4-1.7,15.7
			c-1.2-0.4-2.3-0.8-3.3-1.2c-6.8-2.8-13.2-6.6-19.3-10.8c-5.5-3.7-10.8-7.8-16.2-11.7c-0.7-0.5-1.1-1.1-1.2-1.9
			c-0.8-5.5-7.3-8.3-12-5.3c-2.7,1.8-4.1,5.3-3.4,8.3c0.9,3.5,3.7,5.9,6.9,6.1c0.6,0,1.2,0.2,1.6,0.5c2.7,2,5.3,4.1,7.9,6.1
			c5.8,4.4,11.9,8.5,18.2,12.1c5.3,3.1,10.8,5.9,16.7,7.7c0.9,0.3,1.9,0.6,2.9,0.8c-0.4,3.6-0.8,7.1-1.1,10.6
			c-0.8,7.2-1.6,14.3-2.4,21.5c-0.8,7.4-1.6,14.7-2.4,22.1C83.1,109.3,82.4,110.4,81,111z"/>
	</g>
</g>
</svg>
