<?xml version="1.0" standalone="no"?>
<!DOCTYPE svg PUBLIC "-//W3C//DTD SVG 20010904//EN"
 "http://www.w3.org/TR/2001/REC-SVG-20010904/DTD/svg10.dtd">
<svg version="1.0" xmlns="http://www.w3.org/2000/svg"
 width="260.000000pt" height="260.000000pt" viewBox="0 0 260.000000 260.000000"
 preserveAspectRatio="xMidYMid meet">
<metadata>
Created by potrace 1.11, written by Peter Selinger 2001-2013
</metadata>
<g transform="translate(0.000000,260.000000) scale(0.100000,-0.100000)"
fill="#000000" stroke="none">
<path d="M0 1300 l0 -1300 1300 0 1300 0 0 1300 0 1300 -1300 0 -1300 0 0
-1300z m1840 1008 c18 -13 41 -39 51 -58 18 -33 19 -73 19 -733 0 -675 -1
-699 -20 -737 -11 -21 -34 -49 -52 -62 l-33 -23 -557 -5 c-545 -5 -557 -5
-585 -26 -102 -76 -98 -216 7 -278 34 -21 47 -21 671 -21 612 0 638 1 658 19
l21 19 0 828 c0 494 4 838 9 852 13 33 46 43 77 22 l24 -16 -2 -867 -3 -867
-23 -33 c-50 -70 -16 -67 -731 -70 -735 -3 -717 -5 -801 74 -27 25 -58 67 -71
97 l-23 52 -1 870 c0 860 0 870 21 905 11 19 35 45 54 57 l33 23 612 0 612 0
33 -22z m54 -1750 c20 -29 20 -52 0 -72 -14 -14 -81 -16 -590 -16 -561 0 -574
0 -594 20 -25 25 -25 31 1 64 l20 26 574 0 574 0 15 -22z"/>
<path d="M638 2223 c-14 -2 -32 -10 -38 -18 -8 -9 -11 -215 -11 -725 0 -392 2
-715 5 -717 2 -3 19 4 38 14 31 17 72 18 563 20 292 2 540 5 552 8 56 13 53
-21 53 705 0 643 -1 669 -19 691 l-19 24 -549 1 c-301 1 -560 -1 -575 -3z
m639 -169 c64 -49 66 -145 2 -198 -18 -15 -29 -33 -27 -43 3 -16 20 -18 171
-21 l168 -2 -3 -43 -3 -42 -163 -3 -164 -3 4 -243 c3 -259 7 -276 52 -276 36
0 122 48 137 76 12 23 11 30 -4 56 -10 17 -16 32 -15 33 2 1 25 13 51 26 27
13 75 50 108 83 72 71 84 67 84 -32 0 -55 -6 -80 -33 -136 -25 -53 -36 -67
-48 -62 -12 5 -35 -12 -78 -57 -62 -65 -125 -104 -225 -138 -30 -11 -65 -26
-77 -34 -18 -11 -25 -12 -40 -1 -11 8 -53 26 -94 40 -102 37 -150 67 -216 134
-35 36 -62 56 -74 54 -14 -2 -26 13 -48 60 -17 35 -34 82 -37 104 -6 40 9 124
22 124 3 0 34 -26 67 -59 34 -32 82 -68 106 -81 25 -12 46 -24 48 -25 1 -1 -5
-16 -15 -33 -17 -30 -17 -32 3 -59 23 -32 97 -73 131 -73 46 0 51 27 55 282
l3 238 -165 2 -165 3 -3 43 -3 42 170 0 171 0 0 24 c0 14 -10 30 -24 39 -33
22 -59 82 -52 120 9 45 45 85 91 102 48 17 89 11 132 -21z"/>
<path d="M1172 1978 c-25 -25 0 -64 32 -52 21 8 21 50 0 58 -20 8 -18 8 -32
-6z"/>
</g>
</svg>
